<?xml version="1.0" encoding="UTF-8" standalone="no"?>
<!DOCTYPE svg PUBLIC "-//W3C//DTD SVG 1.1//EN"
 "http://www.w3.org/Graphics/SVG/1.1/DTD/svg11.dtd">
<!-- Generated by graphviz version 2.40.1 (20161225.0304)
 -->
<!-- Title: dependencies Pages: 1 -->
<svg width="740pt" height="284pt"
 viewBox="0.00 0.00 740.00 284.00" xmlns="http://www.w3.org/2000/svg" xmlns:xlink="http://www.w3.org/1999/xlink">
<g id="graph0" class="graph" transform="scale(1 1) rotate(0) translate(4 280)">
<title>dependencies</title>
<polygon fill="#ffffff" stroke="transparent" points="-4,4 -4,-280 736,-280 736,4 -4,4"/>
<text text-anchor="start" x="345.0091" y="-42.4" font-family="sans-serif" font-weight="bold" font-size="14.00" fill="#000000">Legend</text>
<polygon fill="#ffffb3" stroke="transparent" points="132,-10 132,-30 152,-30 152,-10 132,-10"/>
<text text-anchor="start" x="155.629" y="-15.4" font-family="sans-serif" font-size="14.00" fill="#000000"> &#160;Declarations</text>
<polygon fill="#8dd3c7" stroke="transparent" points="245,-10 245,-30 265,-30 265,-10 245,-10"/>
<text text-anchor="start" x="268.7251" y="-15.4" font-family="sans-serif" font-size="14.00" fill="#000000"> &#160;Module</text>
<polygon fill="#80b1d3" stroke="transparent" points="331,-10 331,-30 351,-30 351,-10 331,-10"/>
<text text-anchor="start" x="354.7812" y="-15.4" font-family="sans-serif" font-size="14.00" fill="#000000"> &#160;Bootstrap</text>
<polygon fill="#fdb462" stroke="transparent" points="428,-10 428,-30 448,-30 448,-10 428,-10"/>
<text text-anchor="start" x="451.6732" y="-15.4" font-family="sans-serif" font-size="14.00" fill="#000000"> &#160;Providers</text>
<polygon fill="#fb8072" stroke="transparent" points="524,-10 524,-30 544,-30 544,-10 524,-10"/>
<text text-anchor="start" x="547.7258" y="-15.4" font-family="sans-serif" font-size="14.00" fill="#000000"> &#160;Exports</text>
<g id="clust1" class="cluster">
<title>cluster_AppModule</title>
<polygon fill="none" stroke="#000000" stroke-dasharray="1,5" points="8,-70 8,-268 322,-268 322,-70 8,-70"/>
</g>
<g id="clust3" class="cluster">
<title>cluster_AppModule_imports</title>
<polygon fill="none" stroke="#000000" points="16,-78 16,-130 314,-130 314,-78 16,-78"/>
</g>
<g id="clust5" class="cluster">
<title>cluster_AppModule_bootstrap</title>
<polygon fill="none" stroke="#000000" points="115,-208 115,-260 239,-260 239,-208 115,-208"/>
</g>
<g id="clust7" class="cluster">
<title>cluster_SampleModule</title>
<polygon fill="none" stroke="#000000" stroke-dasharray="1,5" points="330,-70 330,-268 724,-268 724,-70 330,-70"/>
</g>
<g id="clust9" class="cluster">
<title>cluster_SampleModule_imports</title>
<polygon fill="none" stroke="#000000" points="443,-78 443,-130 571,-130 571,-78 443,-78"/>
</g>
<g id="clust10" class="cluster">
<title>cluster_SampleModule_exports</title>
<polygon fill="none" stroke="#000000" points="338,-208 338,-260 716,-260 716,-208 338,-208"/>
</g>
<!-- BrowserModule -->
<g id="node1" class="node">
<title>BrowserModule</title>
<polygon fill="#8dd3c7" stroke="#000000" points="306.4734,-122 303.4734,-126 282.4734,-126 279.4734,-122 199.5266,-122 199.5266,-86 306.4734,-86 306.4734,-122"/>
<text text-anchor="middle" x="253" y="-99.8" font-family="Times,serif" font-size="14.00" fill="#000000">BrowserModule</text>
</g>
<!-- AppModule -->
<g id="node3" class="node">
<title>AppModule</title>
<polygon fill="#8dd3c7" stroke="#000000" points="218.6571,-187 215.6571,-191 194.6571,-191 191.6571,-187 135.3429,-187 135.3429,-151 218.6571,-151 218.6571,-187"/>
<text text-anchor="middle" x="177" y="-164.8" font-family="Times,serif" font-size="14.00" fill="#000000">AppModule</text>
</g>
<!-- BrowserModule&#45;&gt;AppModule -->
<g id="edge1" class="edge">
<title>BrowserModule&#45;&gt;AppModule</title>
<path fill="none" stroke="#000000" d="M209.1708,-122.1061C209.1708,-122.1061 209.1708,-140.991 209.1708,-140.991"/>
<polygon fill="#000000" stroke="#000000" points="205.6708,-140.9909 209.1708,-150.991 212.6708,-140.991 205.6708,-140.9909"/>
</g>
<!-- SampleModule.forRoot() -->
<g id="node2" class="node">
<title>SampleModule.forRoot()</title>
<polygon fill="#8dd3c7" stroke="#000000" points="181.9124,-122 178.9124,-126 157.9124,-126 154.9124,-122 24.0876,-122 24.0876,-86 181.9124,-86 181.9124,-122"/>
<text text-anchor="middle" x="103" y="-99.8" font-family="Times,serif" font-size="14.00" fill="#000000">SampleModule.forRoot()</text>
</g>
<!-- SampleModule.forRoot()&#45;&gt;AppModule -->
<g id="edge2" class="edge">
<title>SampleModule.forRoot()&#45;&gt;AppModule</title>
<path fill="none" stroke="#000000" d="M158.564,-122.1061C158.564,-122.1061 158.564,-140.991 158.564,-140.991"/>
<polygon fill="#000000" stroke="#000000" points="155.0641,-140.9909 158.564,-150.991 162.0641,-140.991 155.0641,-140.9909"/>
</g>
<!-- AppComponent  -->
<g id="node4" class="node">
<title>AppComponent </title>
<polygon fill="#80b1d3" stroke="#000000" points="231.439,-252 122.561,-252 122.561,-216 231.439,-216 231.439,-252"/>
<text text-anchor="middle" x="177" y="-229.8" font-family="Times,serif" font-size="14.00" fill="#000000">AppComponent </text>
</g>
<!-- AppModule&#45;&gt;AppComponent  -->
<g id="edge3" class="edge">
<title>AppModule&#45;&gt;AppComponent </title>
<path fill="none" stroke="#000000" stroke-dasharray="1,5" d="M177,-187.1061C177,-187.1061 177,-205.991 177,-205.991"/>
<polygon fill="#000000" stroke="#000000" points="173.5001,-205.9909 177,-215.991 180.5001,-205.991 173.5001,-205.9909"/>
</g>
<!-- CommonModule -->
<g id="node5" class="node">
<title>CommonModule</title>
<polygon fill="#8dd3c7" stroke="#000000" points="562.6681,-122 559.6681,-126 538.6681,-126 535.6681,-122 451.3319,-122 451.3319,-86 562.6681,-86 562.6681,-122"/>
<text text-anchor="middle" x="507" y="-99.8" font-family="Times,serif" font-size="14.00" fill="#000000">CommonModule</text>
</g>
<!-- SampleModule -->
<g id="node6" class="node">
<title>SampleModule</title>
<polygon fill="#8dd3c7" stroke="#000000" points="557.5438,-187 554.5438,-191 533.5438,-191 530.5438,-187 456.4562,-187 456.4562,-151 557.5438,-151 557.5438,-187"/>
<text text-anchor="middle" x="507" y="-164.8" font-family="Times,serif" font-size="14.00" fill="#000000">SampleModule</text>
</g>
<!-- CommonModule&#45;&gt;SampleModule -->
<g id="edge4" class="edge">
<title>CommonModule&#45;&gt;SampleModule</title>
<path fill="none" stroke="#000000" d="M507,-122.1061C507,-122.1061 507,-140.991 507,-140.991"/>
<polygon fill="#000000" stroke="#000000" points="503.5001,-140.9909 507,-150.991 510.5001,-140.991 503.5001,-140.9909"/>
</g>
<!-- SampleComponent  -->
<g id="node7" class="node">
<title>SampleComponent </title>
<polygon fill="#fb8072" stroke="#000000" points="708.3255,-252 581.6745,-252 581.6745,-216 708.3255,-216 708.3255,-252"/>
<text text-anchor="middle" x="645" y="-229.8" font-family="Times,serif" font-size="14.00" fill="#000000">SampleComponent </text>
</g>
<!-- SampleModule&#45;&gt;SampleComponent  -->
<g id="edge5" class="edge">
<title>SampleModule&#45;&gt;SampleComponent </title>
<path fill="none" stroke="#000000" stroke-dasharray="5,2" d="M557.6025,-169C596.9876,-169 645,-169 645,-169 645,-169 645,-205.8939 645,-205.8939"/>
<polygon fill="#000000" stroke="#000000" points="641.5001,-205.8938 645,-215.8939 648.5001,-205.8939 641.5001,-205.8938"/>
</g>
<!-- SampleDirective  -->
<g id="node8" class="node">
<title>SampleDirective </title>
<polygon fill="#fb8072" stroke="#000000" points="563.5766,-252 450.4234,-252 450.4234,-216 563.5766,-216 563.5766,-252"/>
<text text-anchor="middle" x="507" y="-229.8" font-family="Times,serif" font-size="14.00" fill="#000000">SampleDirective </text>
</g>
<!-- SampleModule&#45;&gt;SampleDirective  -->
<g id="edge6" class="edge">
<title>SampleModule&#45;&gt;SampleDirective </title>
<path fill="none" stroke="#000000" stroke-dasharray="5,2" d="M507,-187.1061C507,-187.1061 507,-205.991 507,-205.991"/>
<polygon fill="#000000" stroke="#000000" points="503.5001,-205.9909 507,-215.991 510.5001,-205.991 503.5001,-205.9909"/>
</g>
<!-- SamplePipe  -->
<g id="node9" class="node">
<title>SamplePipe </title>
<polygon fill="#fb8072" stroke="#000000" points="432.3816,-252 345.6184,-252 345.6184,-216 432.3816,-216 432.3816,-252"/>
<text text-anchor="middle" x="389" y="-229.8" font-family="Times,serif" font-size="14.00" fill="#000000">SamplePipe </text>
</g>
<!-- SampleModule&#45;&gt;SamplePipe  -->
<g id="edge7" class="edge">
<title>SampleModule&#45;&gt;SamplePipe </title>
<path fill="none" stroke="#000000" stroke-dasharray="5,2" d="M456.2726,-169C424.2905,-169 389,-169 389,-169 389,-169 389,-205.8939 389,-205.8939"/>
<polygon fill="#000000" stroke="#000000" points="385.5001,-205.8938 389,-215.8939 392.5001,-205.8939 385.5001,-205.8938"/>
</g>
</g>
</svg>
